<?xml version="1.0" encoding="utf-8"?>
<!-- Generator: Adobe Illustrator 16.0.4, SVG Export Plug-In . SVG Version: 6.00 Build 0)  -->
<!DOCTYPE svg PUBLIC "-//W3C//DTD SVG 1.1//EN" "http://www.w3.org/Graphics/SVG/1.1/DTD/svg11.dtd">
<svg version="1.1" id="Layer_1" xmlns="http://www.w3.org/2000/svg" xmlns:xlink="http://www.w3.org/1999/xlink" x="0px" y="0px"
	 width="1355px" height="719px" viewBox="0 0 1355 719" enable-background="new 0 0 1355 719" xml:space="preserve">
<g>
	<path fill="#0077C8" d="M906.945,277.27l52.748,92.825c0,0,22.581,2.782,48.634,7.358c26.052,4.576,58.656,10.949,58.656,10.949
		L941.236,163.367l-103.737-8.298l33.893,59.628l-104.956-7.346l-33.634-58.139L621.2,149.31l-76.111,131.454L439.661,291.42
		l77.44-136.271l-103.727,8.297L287.9,388.402c59.834-12.461,115.038-19.681,160.258-24.766
		c71.821-8.071,154.976-10.386,154.976-10.386l73.883-123.248l73.846,123.174c0,0,33.179,0.922,47.269,1.86
		c14.085,0.937,56.098,3.734,56.098,3.734l-51.526-88.793L906.945,277.27z"/>
	<path fill="#0077C8" d="M677.021,284.695v-0.173l-0.053,0.088l-0.053-0.088v0.173l-33.802,56.68c0,0,18.405-6.611,33.855-6.625
		c15.45,0.014,33.859,6.625,33.859,6.625L677.021,284.695z"/>
</g>
<g>
	<polygon points="289.724,423.939 271.739,423.939 271.739,416.834 315.272,416.834 315.272,423.939 297.29,423.939 297.29,472.679 
		289.724,472.679 	"/>
	<polygon points="327.28,416.834 334.857,416.834 334.857,440.025 363.804,440.025 363.804,416.834 371.375,416.834 
		371.375,472.679 363.804,472.679 363.804,447.115 334.857,447.115 334.857,472.679 327.28,472.679 	"/>
	<polygon points="389.702,416.834 425.749,416.834 425.749,423.939 397.278,423.939 397.278,440.571 423.781,440.571 
		423.781,447.673 397.278,447.673 397.278,465.573 427.16,465.573 427.16,472.679 389.702,472.679 	"/>
	<g>
		<path d="M474.284,416.834v34.233c0,6.935,3.479,15.943,14.044,15.943c10.565,0,14.033-9.009,14.033-15.943v-34.233h7.566v35.432
			c0,12.911-9.382,21.831-21.6,21.831c-12.229,0-21.613-8.92-21.613-21.831v-35.432H474.284z"/>
	</g>
	<rect x="825.675" y="416.834" width="7.571" height="55.845"/>
	<polygon points="863.222,423.939 845.241,423.939 845.241,416.834 888.79,416.834 888.79,423.939 870.787,423.939 870.787,472.679 
		863.222,472.679 	"/>
	<polygon points="913.961,448.863 892.822,416.834 902.537,416.834 917.746,441.362 933.446,416.834 942.675,416.834 
		921.523,448.863 921.523,472.679 913.961,472.679 	"/>
	<g>
		<path d="M1025.604,444.756c0-12.219-8.288-22.238-21.058-22.238c-12.777,0-21.065,10.02-21.065,22.238
			c0,12.22,8.288,22.238,21.065,22.238C1017.315,466.994,1025.604,456.976,1025.604,444.756 M975.441,444.756
			c0-16.562,12.073-29.332,29.104-29.332s29.096,12.77,29.096,29.332c0,16.571-12.064,29.341-29.096,29.341
			S975.441,461.327,975.441,444.756"/>
	</g>
	<polygon points="1048.502,416.834 1083.607,416.834 1083.607,423.939 1056.08,423.939 1056.08,441.447 1081.713,441.447 
		1081.713,448.541 1056.08,448.541 1056.08,472.679 1048.502,472.679 	"/>
	<path d="M176.595,521.312h0.167l10.41,25.625h-21.141L176.595,521.312z M173.598,511.541l-24.594,55.833h8.825l5.519-13.8h26.574
		l5.592,13.8h8.841l-23.892-55.833H173.598z"/>
	<polygon points="215.586,511.541 223.162,511.541 223.162,560.265 248.789,560.265 248.789,567.374 215.586,567.374 	"/>
	<path d="M291.561,546.937l-10.408-25.625h-0.16l-10.572,25.625H291.561z M278.001,511.541h6.849l23.909,55.833h-8.829
		l-5.606-13.809h-26.581l-5.519,13.809h-8.834L278.001,511.541z"/>
	<g>
		<path d="M327.555,560.753h11.124c4.571,0,12.062-1.58,12.062-9.478c0-6.612-4.647-9.925-11.989-9.925h-11.197V560.753z
			 M327.555,534.717h10.331c5.77,0,10.419-2.29,10.419-8.368c0-4.418-2.772-8.187-8.836-8.187h-11.914V534.717z M319.989,511.541
			h19.396c9.697,0,16.957,4.478,16.957,13.952c0,6.384-3.946,10.414-9.612,12.301v0.154c6.696,0.48,12.067,6.396,12.067,13.89
			c0,10.003-8.771,15.536-19.653,15.536h-19.154V511.541z"/>
	</g>
	<path d="M404.72,546.937l-10.413-25.625h-0.165l-10.573,25.625H404.72z M391.154,511.541h6.864l23.891,55.833h-8.821l-5.607-13.809
		h-26.574l-5.523,13.809h-8.84L391.154,511.541z"/>
	<polygon points="432.59,511.541 443.872,511.541 461.616,553.806 461.918,553.806 479.52,511.541 490.798,511.541 490.798,567.374 
		483.215,567.374 483.215,521.467 483.073,521.467 464.208,567.374 459.168,567.374 440.325,521.467 440.16,521.467 440.16,567.374 
		432.59,567.374 	"/>
	<polygon points="527.234,416.834 537.174,416.834 567.933,462.729 568.091,462.729 568.091,416.834 575.657,416.834 
		575.657,472.679 566.05,472.679 534.978,426.775 534.819,426.775 534.819,472.679 527.234,472.679 	"/>
	<rect x="593.999" y="416.834" width="7.566" height="55.845"/>
	<polygon points="612.234,416.834 620.984,416.834 637.391,462.265 637.545,462.265 654.583,416.834 662.858,416.834 
		640.866,472.679 633.752,472.679 	"/>
	<polygon points="673.542,416.834 709.568,416.834 709.568,423.939 681.107,423.939 681.107,440.571 707.616,440.571 
		707.616,447.673 681.107,447.673 681.107,465.573 711.003,465.573 711.003,472.679 673.542,472.679 	"/>
	<g>
		<path d="M733.27,441.447h9.934c5.994,0,11.982-1.422,11.982-8.983c0-7.571-5.988-9.001-11.982-9.001h-9.934V441.447z
			 M725.688,416.834h19.646c14.282,0,17.896,8.601,17.896,15.63c0,7.09-5.272,13.788-13.716,14.745l15.851,25.47h-9.465
			l-14.204-24.598h-8.426v24.598h-7.582V416.834z"/>
		<path d="M779.503,461.001c2.681,4.099,7.334,5.993,11.845,5.993c4.958,0,11.115-3.148,11.115-9.302
			c0-12.859-27.531-4.89-27.531-26.663c0-6.535,5.524-15.605,18.934-15.605c6.075,0,11.894,1.271,16.09,6.389l-6.16,5.603
			c-1.891-2.921-5.594-4.897-9.93-4.897c-8.364,0-10.887,5.052-10.887,8.512c0,14.131,27.519,5.688,27.519,25.808
			c0,10.794-8.674,17.26-19.397,17.26c-7.18,0-14.042-2.453-17.818-7.726L779.503,461.001z"/>
	</g>
	<path d="M539.665,546.937l-10.42-25.625h-0.157l-10.569,25.625H539.665z M526.079,511.541h6.87l23.901,55.833h-8.839l-5.592-13.809
		h-26.58l-5.527,13.809h-8.835L526.079,511.541z"/>
	<rect x="593.948" y="511.525" width="7.581" height="55.849"/>
	<polygon points="619.84,511.541 629.786,511.541 660.534,557.44 660.695,557.44 660.695,511.541 668.263,511.541 668.263,567.374 
		658.643,567.374 627.575,521.467 627.406,521.467 627.406,567.374 619.84,567.374 	"/>
	<polygon points="712.478,511.541 720.048,511.541 720.048,534.717 749.001,534.717 749.001,511.541 756.567,511.541 
		756.567,567.374 749.001,567.374 749.001,541.822 720.048,541.822 720.048,567.374 712.478,567.374 	"/>
	<g>
		<path d="M781.443,511.541v34.218c0,6.935,3.471,15.924,14.035,15.924c10.566,0,14.037-8.989,14.037-15.924v-34.218h7.571v35.396
			c0,12.94-9.377,21.852-21.608,21.852c-12.228,0-21.606-8.911-21.606-21.852v-35.396H781.443z"/>
	</g>
	<polygon points="834.395,511.541 844.336,511.541 875.087,557.44 875.246,557.44 875.246,511.541 882.824,511.541 882.824,567.374 
		873.191,567.374 842.119,521.467 841.961,521.467 841.961,567.374 834.395,567.374 	"/>
	<polygon points="912.821,518.627 894.845,518.627 894.845,511.525 938.376,511.525 938.376,518.627 920.391,518.627 
		920.391,567.365 912.821,567.365 	"/>
	<g>
		<path d="M952.046,555.692c2.682,4.1,7.334,5.99,11.828,5.99c4.976,0,11.124-3.15,11.124-9.299
			c0-12.863-27.527-4.886-27.527-26.655c0-6.552,5.517-15.617,18.921-15.617c6.083,0,11.919,1.259,16.095,6.393l-6.137,5.603
			c-1.91-2.93-5.614-4.901-9.958-4.901c-8.353,0-10.871,5.04-10.871,8.523c0,14.105,27.532,5.684,27.532,25.779
			c0,10.818-8.691,17.28-19.411,17.28c-7.183,0-14.036-2.453-17.821-7.733L952.046,555.692z"/>
	</g>
	<polygon points="990.562,511.541 999.307,511.541 1015.727,556.955 1015.873,556.955 1032.917,511.541 1041.18,511.541 
		1019.189,567.374 1012.084,567.374 	"/>
	<rect x="1051.875" y="511.525" width="7.57" height="55.849"/>
	<polygon points="1077.756,511.541 1085.318,511.541 1085.318,560.265 1110.947,560.265 1110.947,567.374 1077.756,567.374 	"/>
	<polygon points="1122.65,511.541 1130.216,511.541 1130.216,560.265 1155.845,560.265 1155.845,567.374 1122.65,567.374 	"/>
	<polygon points="1167.543,511.541 1203.594,511.541 1203.594,518.635 1175.112,518.635 1175.112,535.263 1201.613,535.263 
		1201.613,542.365 1175.112,542.365 1175.112,560.265 1204.995,560.265 1204.995,567.374 1167.543,567.374 	"/>
</g>
</svg>
