<?xml version="1.0" encoding="iso-8859-1"?>
<!-- Uploaded to: SVG Repo, www.svgrepo.com, Generator: SVG Repo Mixer Tools -->
<svg height="800px" width="800px" version="1.1" id="Layer_1" xmlns="http://www.w3.org/2000/svg" xmlns:xlink="http://www.w3.org/1999/xlink" 
	 viewBox="0 0 502.613 502.613" xml:space="preserve">
<g transform="translate(9 1)">
	<path style="fill:#80D6FA;" d="M336.173,104.813v17.067c0,9.387-7.68,17.067-17.067,17.067h-76.8h-76.8
		c-9.387,0-17.067-7.68-17.067-17.067v-17.067c0-9.387,7.68-17.067,17.067-17.067h76.8h76.8
		C328.493,87.747,336.173,95.427,336.173,104.813z M404.44,412.013c9.387,0,17.067,7.68,17.067,17.067
		c0,37.547-30.72,68.267-68.267,68.267H131.373c-37.547,0-68.267-30.72-68.267-68.267c0-9.387,7.68-17.067,17.067-17.067H97.24
		h145.067h145.067H404.44z"/>
	<path style="fill:#ECF4F7;" d="M242.307,275.48v136.533H97.24l34.133-136.533H242.307z M353.24,275.48l34.133,136.533H242.307
		V275.48H353.24z M242.307,138.947V275.48H131.373l34.133-136.533H242.307z M319.107,138.947L353.24,275.48H242.307V138.947H319.107
		z"/>
	<path style="fill:#AAB1BA;" d="M242.307,2.413c14.507,0,25.6,11.093,25.6,25.6s-11.093,25.6-25.6,25.6s-25.6-11.093-25.6-25.6
		S227.8,2.413,242.307,2.413"/>
</g>
<path style="fill:#51565F;" d="M362.24,502.613H140.373c-40.107,0-72.533-32.427-72.533-72.533c0-11.947,9.387-21.333,21.333-21.333
	H362.24c2.56,0,4.267,1.707,4.267,4.267s-1.707,4.267-4.267,4.267H89.173c-6.827,0-12.8,5.973-12.8,12.8c0,34.987,29.013,64,64,64
	H362.24c34.987,0,64-29.013,64-64c0-6.827-5.973-12.8-12.8-12.8h-17.067c-1.707,0-3.413-1.707-4.267-3.413l-33.28-133.12H255.573
	v98.133c0,2.56-1.707,4.267-4.267,4.267s-4.267-1.707-4.267-4.267v-98.133H143.787l-24.747,98.987
	c-0.853,2.56-2.56,3.413-5.12,3.413c-2.56-0.853-3.413-2.56-3.413-5.12l25.6-102.4l0,0l33.28-131.413
	c-9.387-2.56-16.213-11.093-16.213-20.48v-17.067c0-11.947,9.387-21.333,21.333-21.333h72.533v-25.6
	c-14.507-1.707-25.6-14.507-25.6-29.867C221.44,13.653,235.093,0,251.307,0s29.867,13.653,29.867,29.867
	c0,15.36-11.093,27.307-25.6,29.867v25.6h72.533c11.947,0,21.333,9.387,21.333,21.333v17.067c0,10.24-6.827,17.92-16.213,20.48
	l33.28,131.413l0,0l33.28,133.12h13.653c11.947,0,21.333,9.387,21.333,21.333C434.773,470.187,402.347,502.613,362.24,502.613z
	 M255.573,272.213H357.12l-32.427-128h-69.12L255.573,272.213L255.573,272.213z M145.493,272.213H247.04v-128h-37.547
	c-2.56,0-4.267-1.707-4.267-4.267c0-2.56,1.707-4.267,4.267-4.267h118.613l0,0c6.827,0,12.8-5.973,12.8-12.8v-17.067
	c0-6.827-5.973-12.8-12.8-12.8h-153.6c-6.827,0-12.8,5.973-12.8,12.8v17.067c0,6.827,5.973,12.8,12.8,12.8
	c1.707,0,2.56,0.853,3.413,1.707c0.853,0.853,0.853,2.56,0.853,3.413L145.493,272.213z M251.307,7.68
	c-11.947,0-21.333,9.387-21.333,21.333s9.387,21.333,21.333,21.333c11.947,0,21.333-9.387,21.333-21.333S263.253,7.68,251.307,7.68z
	"/>
</svg>